<?xml version="1.0" encoding="iso-8859-1"?>
<!-- Generator: Adobe Illustrator 19.0.0, SVG Export Plug-In . SVG Version: 6.00 Build 0)  -->
<svg version="1.1" id="Capa_1" xmlns="http://www.w3.org/2000/svg" xmlns:xlink="http://www.w3.org/1999/xlink" x="0px" y="0px"
	 viewBox="0 0 512 512" style="enable-background:new 0 0 512 512;" xml:space="preserve">
<path style="fill:#FFC477;" d="M512,149.823v212.355c0,13.445-7.467,25.511-19.483,31.519l-226.18,114.61
	c-4.928,2.449-10.316,3.679-15.694,3.679h-0.22c-5.538-0.04-11.066-1.359-16.084-3.979l-0.09-0.05L18.903,393.667
	C7.247,387.559,0,375.603,0,362.438V149.563c0-6.008,1.499-11.746,4.239-16.804c3.279-6.038,8.317-11.096,14.665-14.415
	L234.338,4.004c9.976-5.208,21.932-5.318,31.999-0.3l0.1,0.04l226.081,114.56c6.638,3.319,11.886,8.487,15.245,14.715
	C510.501,138.067,512,143.805,512,149.823z"/>
<path style="fill:#FFB655;" d="M512,149.823v212.355c0,13.445-7.467,25.511-19.483,31.519l-226.18,114.61
	c-4.928,2.449-10.316,3.679-15.694,3.679h-0.22V260.184l257.34-127.165C510.501,138.067,512,143.805,512,149.823z"/>
<path style="fill:#FFD399;" d="M507.762,133.019l-114.6,56.63l-28.19,13.935l-114.55,56.6L4.239,132.759
	c3.279-6.038,8.317-11.096,14.665-14.415l92.358-49.023l32.019-16.994l91.058-48.323c5.028-2.629,10.556-3.959,16.084-3.989
	c5.458-0.03,10.916,1.2,15.914,3.689l0.1,0.04l226.081,114.56C499.155,121.623,504.403,126.791,507.762,133.019z"/>
<path style="fill:#FFFCE5;" d="M393.792,193.917c0,0,0,0,0,0.01v78.862c0,8.277-6.718,14.995-14.995,14.995
	c-8.277,0-14.995-6.718-14.995-14.995v-69.825l-113.38-59.999L111.261,69.321l32.019-16.994l107.142,56.7l135.392,71.645
	c0.02,0.01,0.04,0.02,0.06,0.03c0.29,0.16,0.57,0.34,0.85,0.51c0.15,0.09,0.31,0.18,0.46,0.28l0.01,0.01
	c1.17,0.79,2.199,1.729,3.069,2.769c0.04,0.05,0.08,0.09,0.11,0.13c0.22,0.26,0.41,0.54,0.61,0.81c0.09,0.13,0.19,0.25,0.28,0.39
	c0.14,0.2,0.25,0.41,0.38,0.62c0.13,0.22,0.27,0.44,0.39,0.67c0.07,0.13,0.13,0.26,0.19,0.39c0.16,0.32,0.31,0.64,0.45,0.97
	c0.02,0.05,0.03,0.09,0.05,0.13c0.17,0.42,0.31,0.84,0.43,1.27c0.28,0.89,0.47,1.819,0.56,2.779
	C393.762,192.927,393.792,193.417,393.792,193.917z"/>
<path style="fill:#FFE89C;" d="M393.792,193.917c0,0,0,0,0,0.01v78.862c0,8.277-6.718,14.995-14.995,14.995
	c-8.277,0-14.995-6.718-14.995-14.995v-68.636l29.35-14.505c0.28,0.89,0.47,1.819,0.56,2.779
	C393.762,192.927,393.792,193.417,393.792,193.917z"/>
<path style="fill:#FF7C48;" d="M166.203,300.357c-3.19-7.642-11.971-11.249-19.614-8.061l-24.558,10.251l-23.31-37.003
	c-4.414-7.008-13.672-9.107-20.68-4.695c-7.007,4.414-9.109,13.673-4.695,20.68l20.621,32.733l-18.61,7.769
	c-7.642,3.19-11.251,11.972-8.061,19.614c2.402,5.755,7.975,9.223,13.844,9.223c1.925,0,3.883-0.374,5.77-1.162l23.268-9.714
	l23.601,37.464c2.851,4.525,7.721,7.005,12.702,7.005c2.731,0,5.496-0.746,7.978-2.309c7.007-4.414,9.109-13.673,4.695-20.68
	l-20.911-33.195l19.902-8.308C165.784,316.78,169.392,307.998,166.203,300.357z"/>
<g>
</g>
<g>
</g>
<g>
</g>
<g>
</g>
<g>
</g>
<g>
</g>
<g>
</g>
<g>
</g>
<g>
</g>
<g>
</g>
<g>
</g>
<g>
</g>
<g>
</g>
<g>
</g>
<g>
</g>
</svg>
