<svg id="Capa_1" enable-background="new 0 0 512 512" height="512" viewBox="0 0 512 512" width="512" xmlns="http://www.w3.org/2000/svg"><g><g><path d="m512 72.638v366.724c0 5.687-4.615 10.302-10.302 10.302h-491.396c-5.687 0-10.302-4.615-10.302-10.302v-366.724c0-5.687 4.615-10.302 10.302-10.302h491.396c5.687 0 10.302 4.615 10.302 10.302z" fill="#e8e6ed"/><path d="m512 72.638v366.724c0 5.687-4.615 10.302-10.302 10.302h-123.395c113.979-98.66 111.445-328.061 108.756-387.327h14.639c5.687-.001 10.302 4.614 10.302 10.301z" fill="#d1d0d8"/><path d="m512 72.638v54.631h-512v-54.631c0-5.687 4.615-10.302 10.302-10.302h491.396c5.687 0 10.302 4.615 10.302 10.302z" fill="#ff5677"/><path d="m512 72.638v54.631h-24.549c.845-28.289.237-51.19-.391-64.932h14.639c5.686-.001 10.301 4.614 10.301 10.301z" fill="#ff2953"/><g fill="#be224e"><path d="m41.255 102.531h-.116c-4.267 0-7.726-3.459-7.726-7.726s3.459-7.726 7.726-7.726h.116c4.267 0 7.726 3.459 7.726 7.726 0 4.266-3.459 7.726-7.726 7.726z"/><path d="m64.581 102.531h-.116c-4.267 0-7.726-3.459-7.726-7.726s3.459-7.726 7.726-7.726h.116c4.267 0 7.726 3.459 7.726 7.726 0 4.266-3.459 7.726-7.726 7.726z"/><path d="m87.907 102.531h-.116c-4.267 0-7.726-3.459-7.726-7.726s3.459-7.726 7.726-7.726h.116c4.267 0 7.726 3.459 7.726 7.726.001 4.266-3.458 7.726-7.726 7.726z"/><path d="m470.862 102.531h-14.377c-4.267 0-7.726-3.459-7.726-7.726s3.459-7.726 7.726-7.726h14.377c4.267 0 7.726 3.459 7.726 7.726 0 4.266-3.459 7.726-7.726 7.726z"/></g></g><g><g><path d="m330.77 240.028c0 17.667-6.123 33.903-16.367 46.69-13.703 17.115-34.772 28.08-58.402 28.08s-44.699-10.964-58.402-28.08c-10.245-12.787-16.367-29.024-16.367-46.69 0-41.297 33.473-74.77 74.77-74.77s74.768 33.473 74.768 74.77z" fill="#ff5677"/><path d="m330.77 240.028c0 17.667-6.123 33.903-16.367 46.69-13.703 17.115-34.772 28.08-58.402 28.08-15.105 0-29.173-4.477-40.923-12.198 6.356 1.767 13.058 2.711 19.975 2.711 23.63 0 44.699-10.964 58.402-28.079 10.245-12.787 16.367-29.024 16.367-46.69 0-26.191-13.46-49.233-33.847-62.581 31.595 8.729 54.795 37.687 54.795 72.067z" fill="#ff2953"/></g></g><path d="m283.282 348.386h-54.563c-4.267 0-7.726-3.459-7.726-7.726s3.459-7.726 7.726-7.726h54.563c4.267 0 7.726 3.459 7.726 7.726s-3.459 7.726-7.726 7.726z" fill="#ff2953"/><g fill="#aaaab2"><path d="m322.714 400.737h-193.11c-4.267 0-7.726-3.459-7.726-7.726s3.459-7.726 7.726-7.726h193.111c4.267 0 7.726 3.459 7.726 7.726s-3.46 7.726-7.727 7.726z"/><path d="m382.396 400.737h-28.314c-4.267 0-7.726-3.459-7.726-7.726s3.459-7.726 7.726-7.726h28.314c4.267 0 7.726 3.459 7.726 7.726.001 4.267-3.459 7.726-7.726 7.726z"/><path d="m191.287 424.264h-61.684c-4.267 0-7.726-3.459-7.726-7.726s3.459-7.726 7.726-7.726h61.684c4.267 0 7.726 3.459 7.726 7.726.001 4.266-3.459 7.726-7.726 7.726z"/><path d="m382.396 424.264h-161.801c-4.267 0-7.726-3.459-7.726-7.726s3.459-7.726 7.726-7.726h161.801c4.267 0 7.726 3.459 7.726 7.726.001 4.266-3.459 7.726-7.726 7.726z"/></g><path d="m266.927 240.028 17.714-17.714c3.018-3.017 3.018-7.909 0-10.927-3.017-3.017-7.909-3.017-10.927 0l-17.714 17.715-17.714-17.714c-3.017-3.017-7.909-3.017-10.927 0s-3.018 7.909 0 10.927l17.714 17.714-17.714 17.714c-3.018 3.017-3.018 7.909 0 10.927 1.509 1.509 3.486 2.263 5.463 2.263s3.955-.755 5.463-2.263l17.715-17.715 17.714 17.714c1.509 1.509 3.486 2.263 5.463 2.263s3.955-.755 5.463-2.263c3.018-3.017 3.018-7.909 0-10.927z" fill="#e8e6ed"/></g></svg>